<svg xmlns="http://www.w3.org/2000/svg" version="1.1" xmlns:xlink="http://www.w3.org/1999/xlink" xmlns:svgjs="http://svgjs.com/svgjs" width="512" height="512" x="0" y="0" viewBox="0 0 512 512" style="enable-background:new 0 0 512 512" xml:space="preserve" class=""><g><linearGradient id="a" x1="256" x2="256" y1="1.326" y2="510.674" gradientUnits="userSpaceOnUse"><stop offset="0" stop-color="#fff"></stop><stop offset="1" stop-color="#fff" stop-opacity="0"></stop></linearGradient><path fill="#5e1b8d" d="M73.973 402.139a21.333 21.333 0 0 1-22.08 3.467L13.12 389.339A21.334 21.334 0 0 1 0 369.765v-227.52a21.332 21.332 0 0 1 13.12-19.573l38.773-16a21.333 21.333 0 0 1 22.08 3.467l8.693 7.2c-5.286-3.8-12.651-2.595-16.45 2.69a11.782 11.782 0 0 0-2.216 6.91v258.133c-.016 6.51 5.247 11.8 11.757 11.816a11.79 11.79 0 0 0 6.91-2.216z" data-original="#5e1b8d"></path><path fill="#7c30b3" d="M13.12 389.339A21.334 21.334 0 0 1 0 369.765v-1.76c.073 6.804 5.647 12.26 12.451 12.188a12.321 12.321 0 0 0 8.883-3.921L352 10.672a32 32 0 0 1 36.373-6.187l105.493 50.773A32 32 0 0 1 512 84.112v1.227c-.01-11.164-9.067-20.206-20.231-20.196a20.215 20.215 0 0 0-12.783 4.569l-396.32 324.96-8.693 7.467a21.333 21.333 0 0 1-22.08 3.467z" data-original="#7c30b3"></path><path fill="#954bcb" d="M13.12 122.672A21.332 21.332 0 0 0 0 142.245v1.76c.073-6.804 5.647-12.26 12.451-12.188a12.321 12.321 0 0 1 8.883 3.921L352 501.339a32 32 0 0 0 36.373 6.187l105.493-50.773a31.998 31.998 0 0 0 18.133-28.853v-1.227c-.01 11.164-9.067 20.206-20.231 20.196a20.215 20.215 0 0 1-12.783-4.569L82.665 117.34l-8.693-7.467a21.332 21.332 0 0 0-22.08-3.2z" data-original="#954bcb"></path><path fill="#c37af4" d="M388.373 507.525A31.998 31.998 0 0 1 352 501.338c7.358 7.305 19.244 7.262 26.549-.096A18.776 18.776 0 0 0 384 488.058v-464c.035-10.368-8.341-18.802-18.709-18.837A18.775 18.775 0 0 0 352 10.672a32 32 0 0 1 36.373-6.187l105.493 50.72a31.998 31.998 0 0 1 18.133 28.853v343.893a31.999 31.999 0 0 1-18.133 28.853z" data-original="#c37af4"></path><path fill="url(#a)" fill-rule="evenodd" d="M367.413 509.872a31.995 31.995 0 0 0 20.96-2.347l105.493-50.72a31.998 31.998 0 0 0 18.133-28.853V84.059a31.999 31.999 0 0 0-18.133-28.853L388.373 4.485a32.003 32.003 0 0 0-23.893-1.547A32.002 32.002 0 0 0 352 10.671L181.973 198.725l-99.307-81.387-8.693-7.467a21.334 21.334 0 0 0-19.253-4.427 13.56 13.56 0 0 0-2.827.96L13.12 122.672A21.333 21.333 0 0 0 0 140.645v230.72a21.333 21.333 0 0 0 13.12 17.973l38.773 16a13.56 13.56 0 0 0 2.827.96 21.33 21.33 0 0 0 19.253-4.427l8.693-7.2 99.307-81.387L352 501.339a32 32 0 0 0 15.413 8.533zM384 147.632 251.787 256.005 384 364.379zM64 182.779l66.187 73.227L64 329.232z" clip-rule="evenodd" opacity=".25" data-original="url(#a)"></path></g></svg>